<svg xmlns="http://www.w3.org/2000/svg" version="1.1" xmlns:xlink="http://www.w3.org/1999/xlink" xmlns:svgjs="http://svgjs.dev/svgjs" width="1440" height="560" preserveAspectRatio="none" viewBox="0 0 1440 560"><g mask="url(&quot;#SvgjsMask1051&quot;)" fill="none"><rect width="1440" height="560" x="0" y="0" fill="rgba(24, 106, 59, 1)"></rect><path d="M0,398.556C81.772,405.155,166.745,410.469,239.782,373.108C316.291,333.971,366.185,260.923,411.637,187.988C462.668,106.101,527.819,21.473,518.78,-74.589C509.654,-171.573,429.055,-242.896,364.247,-315.622C300.281,-387.402,239.06,-473.846,145.046,-493.981C52.434,-513.815,-31.882,-444.672,-123.337,-420.046C-217.508,-394.689,-346.516,-428.265,-400.542,-347.072C-456.338,-263.219,-354.84,-152.763,-367.66,-52.862C-380.158,44.53,-508.414,124.416,-472.789,215.916C-437.795,305.794,-306.106,301.558,-216.136,336.314C-144.754,363.889,-76.275,392.4,0,398.556" fill="#12512d"></path><path d="M1440 1110.221C1542.669 1089.454 1562.788 944.4580000000001 1647.338 882.624 1723.929 826.611 1847.5729999999999 848.424 1903.146 771.512 1959.656 693.303 1964.424 580.034 1931.5140000000001 489.331 1900.183 402.978 1793.848 374.937 1733.978 305.26599999999996 1673.74 235.166 1662.637 123.67099999999999 1580.642 81.017 1495.548 36.750999999999976 1391.81 55.72199999999998 1298.721 78.84800000000001 1202.709 102.69999999999999 1103.318 137.47500000000002 1041.733 214.899 981.018 291.229 983.173 395.784 969.777 492.392 956.451 588.498 926.693 687.827 963.721 777.509 1001.23 868.355 1090.1309999999999 922.749 1170.703 979.034 1254.251 1037.3980000000001 1340.108 1130.426 1440 1110.221" fill="#1e8349"></path></g><defs><mask id="SvgjsMask1051"><rect width="1440" height="560" fill="#ffffff"></rect></mask></defs></svg>